<?xml version='1.0' encoding='utf-8'?>
<svg xmlns="http://www.w3.org/2000/svg" version="1.1" id="Ebene_1" x="0px" y="0px" viewBox="0 0 807.9 814.8" style="enable-background:new 0 0 807.9 814.8;"> <style type="text/css"> .st0{fill:#1C2D33;} .st1{fill:#FAFBF9;} .st2{fill:#030114;} .st3{fill:#020014;} .st4{fill:#FCFDFC;} .st5{fill:#030015;} .st6{fill:#020015;} </style> <path class="st0" d="M784.5,437.2c-3.8-25.3-10.4-49.9-21.2-73.2c-19.4-42.1-48.4-76.8-84.5-105.5c-38.6-30.7-80.2-56.7-124.8-77.9 c-40.4-19.2-82.3-32.4-127.3-34.5c-7.6-0.4-15.1-0.6-22.7-0.7c-7.6,0.1-15.1,0.3-22.7,0.7c-45.1,2.1-87,15.2-127.3,34.5 c-44.5,21.2-86.2,47.2-124.8,77.9C93.1,287.2,64,321.8,44.6,364c-10.7,23.3-17.3,47.9-21.2,73.2c-2.8,18.3-4.7,36.7-4.1,55.2 c1.2,35.7,7.2,70.3,25.1,101.8c13.9,24.5,30,47.6,48.4,69.1c23.6,27.7,51.9,49.5,83.3,67.8c12.2,7.1,24.6,14,36.8,21.2 c1.4,0.8,3,1.4,4.2,3.4c-10.1,4.5-13.2,7.5-24.3,4.1c-2.7-0.9-7-2.7-9.8-0.1c11.5,8.1,24.4,16,37,21.9c34.3,16.1,64.7,23,102,27.9 c27.3,3.6,54.6,5.4,81.9,5.2c27.3,0.2,54.6-1.5,81.9-5.2c37.3-5,67.7-11.8,102-27.9c12.6-5.9,25.6-13.8,37-21.9 c-2.8-2.6-7.1-0.8-9.8,0.1c-11,3.5-14.2,0.4-24.3-4.1c1.2-2,2.8-2.6,4.2-3.4c12.2-7.2,24.6-14.1,36.8-21.2 c31.3-18.3,59.6-40.2,83.3-67.8c18.3-21.5,34.4-44.6,48.4-69.1c17.9-31.5,24-66.1,25.1-101.8C789.1,473.9,787.2,455.5,784.5,437.2z"/> <path class="st1" d="M711.1,240.8c-3.4-23.3,26.3-201.5,36.4-216.7c1.4,1.6,0.8,3.4,0.8,5.1c0.4,22.8-3.4,45.1-6.9,67.5 c-7.4,46.4-16.9,92.4-27.7,138.1C713.3,236.7,713,238.7,711.1,240.8z"/> <path class="st1" d="M96.8,240.8c3.4-23.3-26.3-201.5-36.4-216.7c-1.4,1.6-0.8,3.4-0.8,5.1c-0.4,22.8,3.4,45.1,6.9,67.5 c7.4,46.4,16.9,92.4,27.7,138.1C94.6,236.7,95,238.7,96.8,240.8z"/> <path class="st2" d="M453.6,642c-3.1-0.2-5,1.2-4.3,4.5c1.3,6.2,0.5,7.3-6.2,7.2c-16.2-0.2-33.9-16.7-35.6-33 c-0.3-2.6,0.6-4.6,2.2-6.3c3.5-3.6,6.9-7.2,10.6-10.6c12.3-11.2,25.1-21.7,39.1-31.8c-5.2-3.2-10.1-5.8-15.5-7.5 c-3.3,0.5-5.8-2-8.8-2.7c-10.4-2.3-20.8-3.4-31.1-3.4c-10.3,0-20.7,1.1-31.1,3.4c-3.1,0.7-5.5,3.2-8.8,2.7 c-5.4,1.7-10.3,4.3-15.5,7.5c14,10,26.8,20.6,39.1,31.8c3.7,3.3,7.1,7,10.6,10.6c1.7,1.7,2.5,3.7,2.2,6.3 c-1.8,16.3-19.4,32.8-35.6,33c-6.7,0.1-7.5-1-6.2-7.2c0.7-3.2-1.2-4.7-4.3-4.5c-5.4,0.4-8.4,6.6-5.3,11.2c3.2,4.7,7.8,7.1,13.5,7.3 c16.1,0.7,31.8-9.8,39.5-26.4c0.4-0.9,0.5-2,1.6-2.6c0.1,0.1,0.2,0.2,0.2,0.3c0.1-0.1,0.2-0.2,0.2-0.3c1.2,0.7,1.2,1.8,1.6,2.6 c7.7,16.6,23.4,27.1,39.5,26.4c5.7-0.2,10.3-2.6,13.5-7.3C462,648.6,459,642.4,453.6,642z"/> <path class="st3" d="M797.9,401.2c-11.7-49.7-32.3-95.4-60.9-137.6c-1-1.5-1.4-2.8-1-4.6c4.5-21.2,8.7-42.4,13.3-63.5 c10.3-46.9,20.2-93.8,23.7-141.8c1-13.3,2-26.6,1.3-39.9C773.8,1,769.8-1.9,757.6,1.1c-0.2,0-0.3,0.1-0.5,0.1 c-20.7,5.3-40.6,13-60.5,20.4C652.6,38.2,609.8,57.4,569,81c-20.5,11.8-40.4,24.5-61.4,35.5c-8.5,4.4-17.4,5.5-26.7,4.1 c-11.3-1.7-22.4-4.6-33.8-6.2c-14.5-2.1-28.9-3.1-43.3-3.2c-14.4,0.1-28.8,1.1-43.3,3.2c-11.4,1.6-22.4,4.5-33.8,6.2 c-9.3,1.4-18.2,0.4-26.7-4.1c-21-11-40.9-23.7-61.4-35.5c-40.8-23.6-83.5-42.8-127.5-59.3C91.4,14.2,71.5,6.6,50.8,1.2 c-0.2,0-0.3-0.1-0.5-0.1C38.1-1.9,34.1,1,33.5,13.7c-0.7,13.3,0.3,26.7,1.3,39.9c3.6,48,13.4,94.9,23.7,141.8 c4.7,21.1,8.9,42.4,13.3,63.5c0.4,1.8,0,3.1-1,4.6C42.3,305.8,21.6,351.5,10,401.2C-0.1,444.1-3.3,487.3,3.9,531 c7.1,43.6,22.8,83.2,50.6,118c17.8,22.3,35.7,44.4,57,63.5c14.4,12.8,30.3,23.3,46.9,33.1c8.2,4.8,16.5,9.4,24.7,14.1 c4.7,3.3,0,0,4.7,3.3c11.2,7.8,26.4-2.1,38.9-7c-7.2-5.2-14.3-8.9-21.3-12.8c-18.2-10-36.1-20.6-53-32.7 c-27.2-19.5-50.7-42.8-70.2-70.1c-12.7-17.9-25.3-35.8-35.3-55.5c-9.3-18.3-14.2-37.9-17.4-58c-1.7-10.6-2.8-21.4-3-32.1 c-0.7-33.6,3.7-66.5,13.2-98.8c8.7-29.3,22.8-55.9,41-80.4c11.6-15.6,24.7-29.7,39-42.7c19-17.2,39.6-32.2,61.1-46.2 c20.7-13.4,41.6-26.3,63.5-37.5c26.8-13.7,54.4-25.6,83.8-32.9c19-4.7,38.2-8,57.8-8.9c6-0.3,12.1-0.5,18.1-0.6 c6,0.1,12.1,0.4,18.1,0.6c19.7,0.9,38.9,4.2,57.8,8.9c29.3,7.3,57,19.2,83.8,32.9c21.9,11.2,42.8,24.1,63.5,37.5 c21.5,13.9,42.2,29,61.1,46.2c14.3,12.9,27.4,27.1,39,42.7c18.2,24.5,32.3,51,41,80.4c9.5,32.2,13.9,65.2,13.2,98.8 c-0.2,10.7-1.3,21.5-3,32.1c-3.2,20.1-8.1,39.7-17.4,58c-10,19.7-22.6,37.6-35.3,55.5c-19.5,27.3-42.9,50.7-70.2,70.1 c-16.9,12.1-34.8,22.6-53,32.7c-7,3.9-14.1,7.6-21.3,12.8c12.4,4.9,27.6,14.8,38.9,7c4.7-3.3,0,0,4.7-3.3 c8.2-4.7,16.5-9.3,24.7-14.1c16.5-9.7,32.5-20.3,46.9-33.1c21.3-19.1,39.2-41.2,57-63.5c27.8-34.8,43.5-74.4,50.6-118 C811.2,487.3,808,444.1,797.9,401.2z"/> <path class="st4" d="M557.7,739.5c-25.2-19.5-45.4-43.4-62-70.5c-1.6-2.5-1.5-3.7,1.3-5.2c7.5-4,14.2-9.3,20.2-15.4 c20.7-21.5,28.1-46.2,17.8-75.1c-5.3-14.9-11.9-29.3-18.4-43.7c-5.8-12.9-11.5-25.8-17.2-38.7c0.6-1.9-0.4-3.6-1.2-5.2 c-6.9-15.9-12-32.3-13.6-49.7c-0.4-4.3,0.9-9-2.2-12.9c-1.6-3.6-0.6-7.4-1.5-12.5c-1.9,5.2-3.5,9.1-4.7,13.1 c-13.4,44.5-23.8,89.8-35.2,134.8c-0.8,3.1-0.3,5.1,2.7,6.3c2.5,3.3,6.7,3.5,9.8,5.6c2.1,1.4,2.5,2.5,0.3,4.1 c-1.1,0.8-2.2,1.6-3.2,2.4c-13.8,10.7-27.4,21.7-39.7,34.1c-4.6,4.6-5.6,9.4-3.5,15.4c2,5.8,4.9,11,8.9,15.5 c7.2,7.9,15.6,13.5,26.8,13.3c6.5-0.1,8-1.7,7.8-8.2c-0.1-3,1.6-3.6,3.8-2.5c3,1.4,3.8,4.1,2.9,7.1c-0.8,3-3,4.7-5.7,6 c-6.8,3.1-13.6,2.6-20.4-0.1c-10.5-4.2-18.3-11.4-23.6-21.3c-1.7-3.2-3-4.7-4.4-4.5c-1.4-0.2-2.6,1.2-4.4,4.5 c-5.3,9.9-13.1,17.1-23.6,21.3c-6.7,2.7-13.6,3.2-20.4,0.1c-2.7-1.2-4.9-3-5.7-6c-0.8-3.1-0.1-5.7,2.9-7.1c2.3-1,3.9-0.5,3.8,2.5 c-0.2,6.6,1.3,8.1,7.8,8.2c11.2,0.2,19.7-5.4,26.8-13.3c4-4.5,7-9.7,8.9-15.5c2.1-6,1-10.8-3.5-15.4c-12.3-12.4-25.9-23.4-39.7-34.1 c-1-0.8-2.1-1.6-3.2-2.4c-2.2-1.6-1.7-2.7,0.3-4.1c3.1-2.1,7.4-2.3,9.8-5.6c2.9-1.2,3.5-3.2,2.7-6.3c-11.4-45-21.8-90.3-35.2-134.8 c-1.2-4-2.8-8-4.7-13.1c-0.9,5.1,0.1,9-1.5,12.5c-3,3.9-1.8,8.7-2.2,12.9c-1.6,17.4-6.7,33.8-13.6,49.7c-0.7,1.7-1.7,3.3-1.2,5.2 c-5.7,12.9-11.4,25.9-17.2,38.7c-6.6,14.4-13.2,28.8-18.4,43.7c-10.2,28.9-2.8,53.6,17.8,75.1c5.9,6.2,12.6,11.4,20.2,15.4 c2.9,1.5,2.9,2.7,1.3,5.2c-16.6,27.1-36.7,51-62,70.5c-7.3,5.7-15,10.9-23.3,16.5c13,6.7,25.9,11.5,39,15.7 c30.8,9.9,62.6,14.2,94.7,16.3c14.5,1,28.9,1.5,43.3,1.6c14.4-0.1,28.9-0.6,43.3-1.6c32.1-2.1,63.9-6.4,94.7-16.3 c13.1-4.2,26-9.1,39-15.7C572.7,750.4,565.1,745.2,557.7,739.5z"/> <path class="st5" d="M308.5,490.8c10.9-21.3,16.7-43.9,16.9-67.9c-0.1-0.5-0.3-1-0.2-1.5c3.2-17.4-5.6-30.6-15.2-43.6 c-13.8-18.6-32.7-27.9-55.2-31.2c-29.9-4.3-56.5,4.5-81.2,20.3c-16.8,10.7-32.3,23.2-47,36.8c-8.5,7.9-17.2,15.6-24.5,24.7 c-5.1,6.3-5.2,13.4-1,20.3c10.4,17,24.4,30.5,39.9,42.7c14.6,11.5,30.5,20.7,48.1,26.9c14,4.9,28.7,7.9,43.4,7 c24.6-1.4,48.2-6.7,67.9-23.1c1.7-1.5,2.9-3,4-4.9C305.7,495.2,306,492.3,308.5,490.8z"/> <path class="st5" d="M499.4,490.8c-10.9-21.3-16.7-43.9-16.9-67.9c0.1-0.5,0.3-1,0.2-1.5c-3.2-17.4,5.6-30.6,15.2-43.6 c13.8-18.6,32.7-27.9,55.2-31.2c29.9-4.3,56.5,4.5,81.2,20.3c16.8,10.7,32.3,23.2,47,36.8c8.5,7.9,17.2,15.6,24.5,24.7 c5.1,6.3,5.2,13.4,1,20.3c-10.4,17-24.4,30.5-39.9,42.7c-14.6,11.5-30.5,20.7-48.1,26.9c-14,4.9-28.7,7.9-43.4,7 c-24.6-1.4-48.2-6.7-67.9-23.1c-1.7-1.5-2.9-3-4-4.9C502.2,495.2,501.9,492.3,499.4,490.8z"/> <path class="st4" d="M568,367.4c35,0.6,66.9,23.5,76.2,55.7c7.1,24.4,0.2,45.4-17.8,62.8c-24,23.1-62.7,33.5-94.8,11.9 c-25.6-17.2-35.9-41.7-31.6-72c4-27.8,25-50.3,52.1-57C557.4,367.5,562.7,367.3,568,367.4z"/> <path class="st6" d="M552.6,449.3c0.1-13.7,11.2-24.4,25.2-24.3c13.1,0.1,24.8,11.5,24.7,24c-0.1,14.4-12,26.7-25.8,26.5 C563.5,475.3,552.5,463.3,552.6,449.3z"/> <path class="st4" d="M239.9,367.4c-35,0.6-66.9,23.5-76.2,55.7c-7.1,24.4-0.2,45.4,17.8,62.8c24,23.1,62.7,33.5,94.8,11.9 c25.6-17.2,35.9-41.7,31.6-72c-4-27.8-25-50.3-52.1-57C250.5,367.5,245.2,367.3,239.9,367.4z"/> <path class="st6" d="M255.3,449.3c-0.1-13.7-11.2-24.4-25.2-24.3c-13.1,0.1-24.8,11.5-24.7,24c0.1,14.4,12,26.7,25.8,26.5 C244.4,475.3,255.5,463.3,255.3,449.3z"/> </svg>